<?xml version="1.0" encoding="UTF-8"?>
<svg id="Logo" xmlns="http://www.w3.org/2000/svg" viewBox="0 0 637.8 496.06">
  <defs>
    <style>
      .cls-1 {
        fill: #000;
      }

      .cls-1, .cls-2 {
        stroke-width: 0px;
      }

      .cls-2 {
        fill: #ffed00;
      }
    </style>
  </defs>
  <path class="cls-2" d="M531.5,177.12H148.73l43.08-28.73c6.57-4.38,14.29-6.72,22.18-6.72h285.8s-140.7-93.84-140.7-93.84c-.7-.48-1.44-.95-2.15-1.42-21.73-14.64-54.36-14.64-76.09,0-.72.48-1.44.94-2.15,1.42L66.6,189.29h0c-4.68,3.2-8.98,6.93-12.8,11.12-41.01,45.63-8.95,118.29,52.5,118.53h382.77l-43.08,28.73c-6.57,4.38-14.29,6.72-22.19,6.72H138.01s140.71,93.84,140.71,93.84c.7.49,1.44.95,2.15,1.43,21.73,14.64,54.36,14.64,76.09,0,.72-.48,1.44-.94,2.14-1.42l212.1-141.45h0c4.69-3.21,9.01-6.96,12.84-11.16,11.73-12.89,18.35-30.15,18.33-47.58,0-39.16-31.73-70.9-70.87-70.9Z"/>
  <path class="cls-1" d="M438.32,263.5c.08-5.32-1.27-9.39-4.05-12.22-2.79-2.82-7.04-4.81-12.77-5.96,4.83-.9,8.43-2.8,10.81-5.71,2.37-2.91,3.56-6.61,3.56-11.11v-3.44c0-4.83-.94-8.72-2.82-11.67-1.88-2.95-4.75-5.08-8.6-6.39-3.85-1.31-8.72-1.96-14.61-1.96h-157.8v33.77h-30.21v-33.77h-22.59v85.96h22.59v-35.73h30.21v35.73h22.72v-69.26h33.52v69.26h22.84v-69.26h33.4v69.26h45.31c6.38,0,11.69-.78,15.9-2.33,4.21-1.55,7.41-3.99,9.58-7.31,2.17-3.32,3.25-7.55,3.25-12.71l-.25-5.16ZM386.87,220.77h18.42c2.78,0,4.81.57,6.08,1.72,1.27,1.15,1.9,3.11,1.9,5.89v3.19c0,1.96-.29,3.54-.86,4.73-.57,1.19-1.43,2.05-2.58,2.58-1.15.53-2.7.8-4.67.8h-18.3v-18.91ZM414.99,266.82c0,1.96-.31,3.58-.92,4.85-.61,1.27-1.56,2.17-2.82,2.7-1.27.53-2.93.8-4.97.8h-19.4v-21h19.4c2.13,0,3.83.25,5.1.74,1.27.49,2.19,1.35,2.76,2.58s.86,2.87.86,4.91v4.42Z"/>
</svg>
